<svg width="83" height="83" viewBox="0 0 83 83" fill="none" xmlns="http://www.w3.org/2000/svg">
<path d="M41.5 -1.81402e-06C49.7079 -2.1728e-06 57.7315 2.43393 64.5562 6.99401C71.3808 11.5541 76.7 18.0355 79.841 25.6186C82.982 33.2018 83.8039 41.546 82.2026 49.5962C80.6013 57.6465 76.6488 65.041 70.8449 70.8449C65.0411 76.6488 57.6465 80.6013 49.5962 82.2026C41.546 83.8039 33.2018 82.982 25.6186 79.841C18.0355 76.7 11.5541 71.3808 6.99401 64.5562C2.43393 57.7315 -1.55312e-06 49.7079 -1.81402e-06 41.5L41.5 41.5L41.5 -1.81402e-06Z" fill="#706FE5"/>
</svg>
