<svg width="23" height="22" viewBox="0 0 23 22" fill="none" xmlns="http://www.w3.org/2000/svg">
<path d="M10.3191 0.557464C10.6859 -0.185782 11.7457 -0.185781 12.1126 0.557464L14.8038 6.01043C14.9494 6.30557 15.231 6.51014 15.5567 6.55747L21.5744 7.43189C22.3946 7.55107 22.7221 8.55905 22.1286 9.13758L17.7742 13.3821C17.5385 13.6119 17.4309 13.9429 17.4866 14.2673L18.5145 20.2606C18.6546 21.0775 17.7972 21.7005 17.0636 21.3148L11.6812 18.4851C11.3898 18.332 11.0418 18.332 10.7505 18.4851L5.36808 21.3148C4.63446 21.7005 3.77702 21.0775 3.91713 20.2606L4.94508 14.2673C5.00072 13.9429 4.89317 13.6119 4.65748 13.3821L0.303035 9.13758C-0.290482 8.55905 0.0370287 7.55107 0.857249 7.43189L6.87495 6.55747C7.20066 6.51014 7.48222 6.30557 7.62789 6.01043L10.3191 0.557464Z" fill="#706FE5"/>
</svg>
